<svg xmlns="http://www.w3.org/2000/svg" xmlns:xlink="http://www.w3.org/1999/xlink" width="256" zoomAndPan="magnify" viewBox="0 0 192 191.999996" height="256" preserveAspectRatio="xMidYMid meet" version="1.0"><defs><clipPath id="b44301bd25"><path d="M 24 0 L 168 0 C 181.253906 0 192 10.746094 192 24 L 192 168 C 192 181.253906 181.253906 192 168 192 L 24 192 C 10.746094 192 0 181.253906 0 168 L 0 24 C 0 10.746094 10.746094 0 24 0 Z M 24 0 " clip-rule="nonzero"/></clipPath></defs><g clip-path="url(#b44301bd25)"><rect x="-19.2" width="230.4" fill="#ffffff" y="-19.2" height="230.399995" fill-opacity="1"/></g><path fill="#000000" d="M 112.457031 148.304688 C 109.15625 148.457031 105.855469 148.757812 102.554688 149.054688 C 101.507812 149.207031 100.605469 149.207031 99.707031 149.507812 C 91.304688 152.65625 82.90625 151.757812 74.355469 150.554688 C 67.15625 149.507812 60.257812 147.40625 53.804688 143.957031 C 52.457031 143.355469 50.957031 142.90625 49.457031 142.304688 C 46.15625 140.957031 44.054688 138.257812 41.65625 135.855469 C 37.457031 131.957031 34.007812 127.304688 31.605469 122.207031 C 29.65625 118.007812 28.757812 113.65625 29.355469 109.15625 C 29.507812 107.507812 29.507812 105.855469 29.65625 104.207031 C 30.554688 97.15625 29.957031 89.957031 32.507812 83.054688 C 34.007812 78.707031 36.554688 75.105469 38.207031 70.90625 C 38.355469 70.757812 38.507812 70.605469 38.65625 70.304688 C 41.65625 66.707031 44.207031 62.804688 47.65625 59.804688 C 52.15625 56.054688 56.054688 51.554688 61.605469 48.855469 C 65.355469 47.054688 68.65625 44.507812 72.257812 42.40625 C 75.554688 40.605469 78.855469 38.804688 82.304688 37.605469 C 85.007812 36.707031 88.007812 36.707031 90.707031 36.855469 C 97.304688 37.15625 103.757812 38.65625 110.054688 40.304688 C 114.40625 41.355469 118.007812 43.757812 121.457031 46.15625 C 128.355469 51.105469 134.355469 57.105469 139.757812 63.554688 C 142.007812 66.257812 144.257812 68.957031 146.65625 71.507812 C 149.65625 74.65625 150.554688 78.707031 151.457031 82.605469 C 152.355469 86.804688 152.804688 91.304688 153.40625 95.507812 C 154.15625 101.207031 154.007812 106.90625 153.554688 112.605469 C 153.257812 115.90625 150.105469 122.355469 147.855469 125.054688 C 147.105469 125.804688 146.507812 126.855469 146.054688 127.757812 C 144.257812 131.355469 141.707031 134.355469 139.007812 137.207031 C 137.804688 138.40625 136.15625 139.304688 134.804688 140.207031 C 129.855469 143.355469 124.757812 146.207031 119.054688 147.707031 C 116.957031 148.457031 114.707031 148.304688 112.457031 148.605469 C 112.457031 148.457031 112.457031 148.457031 112.457031 148.304688 Z M 81.554688 148.15625 C 82.15625 148.15625 82.90625 148.15625 83.507812 148.15625 C 89.207031 148.304688 94.605469 147.554688 99.855469 145.15625 C 101.804688 144.257812 104.054688 143.957031 106.304688 143.957031 C 115.457031 143.65625 124.15625 141.554688 131.957031 136.605469 C 135.257812 134.507812 138.707031 132.40625 140.957031 129.105469 C 143.355469 125.65625 145.757812 122.207031 148.007812 118.757812 C 149.65625 116.207031 150.40625 113.355469 150.707031 110.207031 C 151.15625 105.855469 150.105469 101.65625 150.257812 97.457031 C 150.40625 94.15625 150.40625 90.855469 148.90625 87.707031 C 148.007812 85.757812 147.257812 83.65625 146.65625 81.554688 C 145.457031 77.507812 142.90625 74.507812 139.90625 71.65625 C 135.554688 67.457031 131.207031 63.40625 127.007812 59.054688 C 122.507812 54.40625 116.65625 51.707031 111.707031 47.804688 C 104.65625 45.554688 97.605469 42.707031 89.957031 43.304688 C 85.007812 43.757812 80.207031 44.507812 76.007812 47.507812 C 73.007812 49.605469 69.40625 50.957031 66.257812 53.054688 C 62.957031 55.15625 59.207031 56.507812 56.355469 59.507812 C 54.257812 61.605469 51.707031 63.257812 49.605469 65.207031 C 48.257812 66.40625 47.054688 67.90625 46.007812 69.40625 C 43.757812 72.554688 41.65625 75.554688 39.707031 78.855469 C 36.855469 83.804688 34.15625 88.757812 33.707031 94.757812 C 33.40625 98.804688 32.957031 102.855469 32.207031 106.757812 C 31.457031 110.957031 32.054688 114.707031 33.707031 118.605469 C 38.207031 130.15625 45.105469 139.304688 57.257812 143.507812 C 57.40625 143.507812 57.40625 143.65625 57.554688 143.65625 C 65.207031 147.257812 73.15625 148.90625 81.554688 148.15625 Z M 81.554688 148.15625 " fill-opacity="1" fill-rule="nonzero"/><path fill="#000000" d="M 31.757812 135.707031 C 34.304688 136.90625 35.65625 138.105469 36.257812 140.054688 C 37.304688 142.90625 39.554688 144.707031 41.957031 146.207031 C 49.457031 151.15625 57.554688 154.15625 66.257812 155.804688 C 71.65625 156.855469 77.054688 157.90625 82.605469 158.207031 C 86.507812 158.507812 90.40625 157.757812 94.457031 157.457031 C 97.605469 157.304688 100.757812 157.304688 104.054688 157.007812 C 107.207031 156.707031 110.355469 156.257812 113.507812 155.804688 C 115.15625 155.65625 116.804688 155.207031 118.457031 155.207031 C 125.207031 155.054688 131.507812 153.707031 137.054688 149.65625 C 139.90625 147.554688 143.207031 145.757812 146.207031 143.804688 C 149.804688 141.40625 151.90625 137.957031 153.707031 134.054688 C 157.15625 126.707031 157.757812 118.90625 158.957031 111.105469 C 159.707031 107.054688 158.804688 103.007812 159.105469 98.957031 C 159.554688 93.554688 159.257812 88.007812 158.804688 82.605469 C 158.355469 77.207031 156.257812 72.554688 153.40625 68.355469 C 149.804688 62.957031 146.054688 57.707031 141.707031 52.90625 C 138.40625 49.15625 134.054688 46.304688 130.15625 43.15625 C 121.90625 36.40625 112.15625 33.707031 101.804688 33.105469 C 97.757812 32.804688 93.707031 32.207031 89.65625 32.207031 C 85.007812 32.054688 80.207031 32.054688 75.554688 32.507812 C 73.304688 32.507812 71.054688 33.554688 68.957031 34.457031 C 63.707031 36.554688 58.457031 38.355469 53.507812 40.90625 C 50.804688 42.257812 48.105469 44.507812 46.15625 46.90625 C 42.257812 51.554688 38.65625 56.65625 35.207031 61.757812 C 33.257812 64.757812 32.507812 68.207031 32.355469 71.804688 C 32.355469 73.007812 32.507812 74.507812 30.855469 75.105469 C 28.457031 73.15625 28.007812 71.507812 28.90625 68.804688 C 31.457031 61.457031 35.207031 54.855469 40.304688 49.15625 C 42.105469 47.054688 43.605469 44.957031 45.707031 43.007812 C 49.757812 39.40625 54.257812 36.855469 59.207031 34.90625 C 63.554688 33.257812 67.757812 31.457031 72.105469 30.105469 C 74.65625 29.355469 77.207031 28.90625 79.90625 28.757812 C 91.90625 28.304688 103.90625 28.90625 115.605469 31.90625 C 120.105469 33.105469 124.90625 34.304688 128.804688 36.855469 C 137.355469 42.257812 145.457031 48.40625 151.007812 57.257812 C 153.855469 61.757812 156.554688 66.105469 158.207031 71.207031 C 159.105469 74.207031 161.054688 76.757812 161.65625 80.054688 C 162.707031 86.207031 162.707031 92.355469 163.15625 98.355469 C 163.757812 106.457031 161.65625 114.257812 160.90625 122.207031 C 160.90625 122.507812 160.90625 122.804688 160.757812 123.257812 C 158.507812 129.105469 156.554688 135.105469 154.15625 140.804688 C 151.605469 146.65625 146.804688 150.105469 141.105469 152.65625 C 138.554688 153.707031 136.304688 155.207031 133.90625 156.554688 C 132.707031 157.304688 131.355469 157.457031 129.855469 157.457031 C 127.757812 157.304688 125.507812 157.757812 123.257812 158.054688 C 121.304688 158.207031 119.355469 158.207031 117.40625 158.507812 C 116.054688 158.65625 114.707031 158.804688 113.65625 159.40625 C 110.804688 161.054688 107.804688 161.65625 104.804688 161.65625 C 99.105469 161.507812 93.707031 162.554688 88.15625 163.304688 C 82.90625 164.054688 77.804688 163.757812 72.707031 162.855469 C 67.757812 161.957031 62.957031 161.207031 58.457031 159.855469 C 53.507812 158.355469 48.707031 156.257812 44.207031 153.855469 C 40.90625 151.90625 37.90625 149.355469 35.804688 145.757812 C 34.457031 143.507812 33.105469 141.257812 32.207031 138.855469 C 31.90625 137.957031 31.90625 137.207031 31.757812 135.707031 Z M 31.757812 135.707031 " fill-opacity="1" fill-rule="nonzero"/><path fill="#000000" d="M 163.457031 64.457031 C 162.40625 64.90625 161.507812 64.90625 160.90625 63.554688 C 159.707031 61.007812 158.65625 58.457031 158.957031 55.757812 C 159.105469 53.65625 158.355469 51.855469 156.855469 50.355469 C 153.257812 46.757812 149.804688 43.304688 146.054688 39.855469 C 145.007812 38.804688 143.65625 37.90625 142.304688 37.304688 C 139.757812 36.257812 138.257812 34.15625 136.304688 32.054688 C 137.054688 31.605469 137.507812 31.007812 137.957031 31.007812 C 143.207031 31.007812 147.855469 32.507812 151.757812 35.804688 C 156.40625 39.707031 159.40625 44.804688 161.65625 50.355469 C 161.957031 50.957031 162.105469 51.554688 162.105469 52.304688 C 162.554688 56.355469 163.007812 60.257812 163.457031 64.457031 Z M 163.457031 64.457031 " fill-opacity="1" fill-rule="nonzero"/><path fill="#000000" d="M 57.105469 30.257812 C 56.957031 32.355469 55.457031 32.507812 54.257812 32.804688 C 47.804688 34.90625 42.40625 38.957031 37.605469 43.605469 C 35.957031 45.105469 34.90625 47.355469 33.554688 49.15625 C 33.105469 49.90625 32.65625 50.65625 31.90625 51.105469 C 31.457031 51.40625 30.554688 51.707031 30.257812 51.40625 C 29.957031 51.257812 29.65625 50.207031 29.804688 49.757812 C 31.15625 46.605469 32.355469 43.457031 35.207031 41.207031 C 38.355469 38.65625 41.507812 36.105469 44.804688 33.707031 C 48.257812 31.304688 52.457031 30.40625 57.105469 30.257812 Z M 57.105469 30.257812 " fill-opacity="1" fill-rule="nonzero"/><path fill="#000000" d="M 161.804688 139.605469 C 161.65625 140.804688 161.65625 142.007812 161.507812 143.054688 C 160.90625 146.507812 159.707031 149.804688 157.15625 152.355469 C 154.757812 154.757812 152.507812 157.304688 149.957031 159.554688 C 148.457031 161.054688 146.65625 162.554688 144.105469 161.957031 C 143.507812 160.15625 144.257812 158.804688 145.605469 158.054688 C 150.105469 155.804688 152.507812 151.304688 156.105469 148.15625 C 156.707031 147.707031 156.855469 146.65625 157.15625 145.90625 C 157.90625 144.105469 158.355469 142.15625 159.257812 140.355469 C 159.554688 139.757812 160.605469 139.304688 161.355469 138.855469 C 161.507812 139.15625 161.65625 139.304688 161.804688 139.605469 Z M 161.804688 139.605469 " fill-opacity="1" fill-rule="nonzero"/><path fill="#000000" d="M 32.804688 150.554688 C 35.804688 152.957031 38.65625 155.054688 41.507812 157.304688 C 41.957031 157.757812 42.40625 158.65625 42.257812 159.257812 C 41.957031 160.457031 40.90625 160.304688 40.15625 159.855469 C 37.605469 158.355469 35.054688 157.007812 32.65625 155.207031 C 30.554688 153.554688 30.707031 152.957031 32.804688 150.554688 Z M 32.804688 150.554688 " fill-opacity="1" fill-rule="nonzero"/><path fill="#000000" d="M 38.65625 29.804688 C 38.207031 30.40625 37.90625 31.007812 37.304688 31.605469 C 35.65625 33.257812 34.007812 34.757812 32.355469 36.40625 C 31.457031 37.457031 30.554688 38.054688 29.207031 36.554688 C 30.855469 32.507812 34.15625 30.707031 37.90625 29.355469 C 38.207031 29.507812 38.355469 29.65625 38.65625 29.804688 Z M 38.65625 29.804688 " fill-opacity="1" fill-rule="nonzero"/><path fill="#000000" d="M 156.707031 34.007812 C 157.457031 32.957031 157.90625 32.207031 158.507812 31.15625 C 159.554688 32.207031 160.605469 32.957031 161.355469 33.855469 C 161.65625 34.304688 161.65625 35.355469 161.507812 35.507812 C 161.054688 35.957031 160.007812 36.257812 159.554688 35.957031 C 158.507812 35.65625 157.757812 34.757812 156.707031 34.007812 Z M 156.707031 34.007812 " fill-opacity="1" fill-rule="nonzero"/><path fill="#000000" d="M 157.15625 162.707031 C 157.605469 160.15625 158.65625 159.257812 161.804688 158.507812 C 161.957031 161.355469 160.15625 162.855469 157.15625 162.707031 Z M 157.15625 162.707031 " fill-opacity="1" fill-rule="nonzero"/><path fill="#000000" d="M 140.207031 96.554688 C 140.355469 98.207031 140.507812 100.304688 140.65625 102.554688 C 140.65625 103.007812 140.804688 103.457031 140.804688 103.90625 C 139.605469 110.957031 137.957031 117.707031 132.257812 122.65625 C 131.65625 123.257812 130.90625 123.855469 130.457031 124.605469 C 127.304688 129.707031 122.355469 131.957031 117.105469 133.605469 C 113.804688 134.65625 110.507812 135.40625 107.207031 136.007812 C 105.257812 136.304688 103.15625 136.304688 101.355469 135.855469 C 97.605469 134.804688 94.15625 135.707031 90.707031 136.757812 C 88.15625 137.507812 85.757812 138.40625 83.207031 139.15625 C 82.15625 139.457031 80.957031 139.605469 79.90625 139.304688 C 75.554688 138.40625 71.054688 137.957031 66.855469 135.855469 C 62.65625 133.90625 58.605469 131.957031 54.855469 129.105469 C 51.707031 126.855469 49.007812 124.304688 47.054688 120.855469 C 46.007812 118.90625 44.804688 117.105469 43.304688 115.457031 C 40.304688 111.855469 39.707031 107.957031 40.304688 103.457031 C 40.605469 101.65625 40.15625 99.707031 40.457031 97.90625 C 40.757812 95.207031 41.207031 92.507812 42.105469 89.957031 C 43.15625 87.257812 44.804688 84.707031 46.457031 82.304688 C 47.957031 80.054688 49.757812 78.105469 51.40625 76.15625 C 53.507812 73.457031 56.054688 71.207031 59.207031 69.707031 C 65.054688 66.855469 70.15625 62.957031 75.105469 58.605469 C 76.605469 57.257812 78.257812 56.207031 79.757812 54.855469 C 83.507812 51.554688 87.855469 51.105469 92.65625 52.15625 C 94.90625 52.605469 97.15625 52.90625 99.40625 53.054688 C 103.605469 53.507812 107.507812 55.007812 111.257812 56.804688 C 122.054688 62.054688 130.457031 69.855469 135.554688 80.65625 C 135.855469 81.257812 136.007812 81.855469 136.457031 82.457031 C 139.90625 86.054688 140.804688 90.855469 140.207031 96.554688 Z M 136.90625 97.304688 C 137.054688 95.355469 137.054688 94.15625 137.207031 92.957031 C 137.507812 90.554688 137.054688 88.605469 135.105469 87.105469 C 134.355469 86.355469 133.605469 85.457031 133.15625 84.40625 C 129.554688 75.855469 122.507812 70.457031 115.304688 65.054688 C 114.707031 64.605469 113.957031 64.304688 113.207031 64.007812 C 110.054688 62.804688 107.054688 61.757812 103.90625 60.707031 C 102.105469 60.105469 100.304688 59.054688 98.355469 58.605469 C 95.207031 57.855469 91.90625 57.40625 88.605469 56.957031 C 87.257812 56.804688 85.605469 56.804688 84.40625 57.257812 C 81.707031 58.457031 78.707031 59.507812 76.605469 61.457031 C 73.457031 64.15625 70.304688 66.40625 67.007812 68.804688 C 64.605469 70.605469 62.355469 72.40625 59.355469 73.304688 C 58.304688 73.757812 57.257812 74.507812 56.355469 75.257812 C 52.15625 78.855469 48.40625 83.054688 45.40625 87.855469 C 43.304688 91.304688 41.957031 94.90625 42.554688 99.105469 C 42.707031 100.007812 42.40625 101.054688 42.257812 102.105469 C 42.105469 103.007812 41.804688 104.054688 41.957031 104.957031 C 43.457031 112.15625 47.957031 117.554688 52.457031 122.957031 C 52.457031 123.105469 52.605469 123.105469 52.757812 123.105469 C 59.054688 127.90625 66.257812 130.757812 73.90625 132.554688 C 79.605469 133.90625 85.304688 134.65625 91.007812 131.957031 C 94.605469 130.304688 98.65625 130.15625 102.707031 130.90625 C 104.65625 131.355469 106.605469 131.207031 108.554688 130.90625 C 113.355469 130.457031 117.855469 128.65625 122.355469 126.855469 C 124.757812 125.804688 126.707031 124.457031 128.355469 122.355469 C 129.554688 120.855469 130.757812 119.207031 132.257812 117.855469 C 135.855469 114.257812 136.90625 109.605469 137.355469 104.957031 C 137.507812 102.257812 137.054688 99.40625 136.90625 97.304688 Z M 136.90625 97.304688 " fill-opacity="1" fill-rule="nonzero"/><path fill="#000000" d="M 128.207031 95.207031 C 127.757812 97.605469 127.15625 99.40625 127.15625 101.054688 C 127.304688 105.707031 125.804688 109.90625 123.554688 113.804688 C 123.105469 114.707031 122.355469 115.457031 121.605469 116.054688 C 117.554688 119.054688 113.355469 121.757812 108.40625 123.257812 C 107.054688 123.707031 106.007812 123.707031 104.65625 122.804688 C 102.707031 121.304688 100.605469 121.304688 98.207031 121.304688 C 93.40625 121.457031 89.355469 123.554688 84.855469 124.605469 C 80.804688 125.507812 77.207031 124.90625 73.757812 122.957031 C 72.554688 122.355469 71.507812 121.605469 70.304688 121.15625 C 65.355469 119.207031 62.207031 115.457031 59.507812 111.105469 C 58.90625 110.207031 58.304688 109.304688 57.707031 108.257812 C 54.40625 103.15625 54.105469 97.90625 55.90625 92.207031 C 56.507812 90.707031 56.957031 89.054688 57.40625 87.554688 C 58.457031 83.054688 61.90625 80.355469 65.355469 77.957031 C 67.605469 76.457031 70.304688 75.554688 72.855469 74.65625 C 75.855469 73.605469 78.257812 72.105469 80.65625 70.007812 C 85.15625 65.957031 90.855469 64.457031 96.855469 64.457031 C 103.304688 64.457031 108.40625 67.605469 113.054688 71.507812 C 116.65625 74.507812 119.65625 78.257812 122.957031 81.707031 C 124.757812 83.65625 126.105469 85.90625 126.554688 88.605469 C 127.007812 91.15625 127.757812 93.40625 128.207031 95.207031 Z M 95.054688 70.007812 C 90.105469 70.15625 85.304688 71.207031 81.554688 74.507812 C 78.105469 77.507812 74.207031 79.304688 70.15625 80.804688 C 65.054688 82.605469 61.304688 85.90625 59.507812 91.15625 C 59.355469 91.605469 59.207031 92.054688 58.90625 92.355469 C 57.105469 95.355469 56.957031 98.355469 57.855469 101.804688 C 60.105469 110.355469 64.457031 116.804688 72.855469 119.957031 C 73.90625 120.40625 74.957031 120.554688 76.007812 121.007812 C 78.855469 122.207031 81.707031 122.355469 84.707031 121.757812 C 89.507812 120.855469 94.457031 119.804688 99.257812 119.207031 C 100.757812 119.054688 102.40625 119.207031 103.757812 119.804688 C 106.007812 120.707031 108.105469 120.554688 110.207031 119.804688 C 111.40625 119.355469 112.757812 118.90625 113.804688 118.15625 C 116.507812 116.355469 119.65625 114.707031 121.605469 112.304688 C 125.207031 107.957031 124.757812 102.257812 125.054688 96.855469 C 125.207031 94.757812 124.457031 92.507812 123.855469 90.40625 C 123.40625 89.054688 122.957031 87.554688 122.054688 86.65625 C 118.304688 82.304688 114.257812 78.257812 109.605469 74.957031 C 105.105469 71.65625 100.457031 69.554688 95.054688 70.007812 Z M 95.054688 70.007812 " fill-opacity="1" fill-rule="nonzero"/><path fill="#000000" d="M 95.355469 113.207031 C 93.707031 112.90625 91.605469 113.65625 89.507812 114.707031 C 86.355469 116.355469 82.757812 116.65625 79.15625 116.207031 C 70.457031 115.15625 62.054688 103.007812 68.65625 93.40625 C 69.707031 91.90625 70.605469 90.554688 71.507812 88.90625 C 72.855469 86.207031 75.105469 84.855469 78.105469 84.855469 C 80.957031 84.855469 83.054688 83.355469 85.15625 81.554688 C 85.90625 80.957031 86.65625 80.207031 87.40625 79.605469 C 91.304688 75.707031 96.105469 75.554688 101.207031 76.457031 C 101.65625 76.605469 102.105469 76.605469 102.40625 76.90625 C 105.40625 79.304688 108.707031 81.40625 111.40625 84.105469 C 113.65625 86.355469 115.007812 89.207031 114.855469 92.804688 C 114.707031 95.65625 115.304688 98.507812 114.707031 101.355469 C 113.804688 105.707031 111.707031 108.855469 107.507812 110.804688 C 103.605469 112.304688 100.15625 113.507812 95.355469 113.207031 Z M 97.457031 109.605469 C 99.257812 109.304688 101.207031 109.15625 102.855469 108.554688 C 107.355469 106.757812 112.15625 105.105469 112.15625 98.957031 C 112.15625 96.554688 112.007812 94.15625 111.40625 91.90625 C 110.957031 90.257812 109.90625 88.457031 108.554688 87.257812 C 107.054688 85.605469 105.105469 84.257812 103.15625 82.90625 C 102.257812 82.304688 101.207031 81.855469 100.15625 81.707031 C 95.65625 80.804688 91.605469 81.40625 88.15625 84.707031 C 85.757812 86.957031 82.757812 88.605469 79.457031 89.054688 C 76.304688 89.507812 74.207031 91.304688 72.105469 93.554688 C 68.507812 97.605469 69.707031 104.957031 72.707031 108.105469 C 77.507812 113.207031 83.054688 113.054688 87.855469 111.105469 C 91.15625 109.757812 94.007812 108.554688 97.457031 109.605469 Z M 97.457031 109.605469 " fill-opacity="1" fill-rule="nonzero"/><path fill="#000000" d="M 103.15625 91.605469 C 103.457031 95.207031 102.40625 97.90625 100.757812 100.457031 C 99.554688 102.40625 97.757812 103.457031 95.507812 103.007812 C 93.554688 102.554688 91.457031 101.804688 89.65625 100.90625 C 88.757812 100.457031 88.15625 99.40625 87.707031 98.355469 C 86.355469 95.355469 87.40625 92.804688 89.355469 90.554688 C 91.304688 88.304688 93.855469 87.707031 96.554688 88.605469 C 98.804688 89.355469 100.90625 90.554688 103.15625 91.605469 Z M 101.207031 94.757812 C 98.65625 92.804688 95.957031 91.304688 92.65625 91.757812 C 90.707031 92.054688 89.65625 93.257812 89.507812 95.054688 C 89.355469 96.855469 90.105469 98.207031 91.90625 98.804688 C 96.40625 100.457031 99.105469 100.457031 101.207031 94.757812 Z M 101.207031 94.757812 " fill-opacity="1" fill-rule="nonzero"/></svg>